<?xml version="1.0" standalone="no"?>
<!DOCTYPE svg PUBLIC "-//W3C//DTD SVG 20010904//EN"
 "http://www.w3.org/TR/2001/REC-SVG-20010904/DTD/svg10.dtd">
<svg version="1.0" xmlns="http://www.w3.org/2000/svg"
 width="1506.000000pt" height="1506.000000pt" viewBox="0 0 1506.000000 1506.000000"
 preserveAspectRatio="xMidYMid meet">
<metadata>
Created by potrace 1.11, written by Peter Selinger 2001-2013
</metadata>
<g transform="translate(0.000000,1506.000000) scale(0.100000,-0.100000)"
fill="#000000" stroke="none">
<path d="M6306 14571 l-38 -6 43 -35 c214 -170 429 -441 564 -710 160 -320
235 -635 235 -990 0 -511 -172 -997 -493 -1395 -133 -165 -363 -367 -549 -483
-864 -538 -1993 -408 -2714 312 -197 197 -307 351 -430 601 -116 238 -178 450
-209 712 -26 219 -14 511 29 694 7 32 11 59 8 59 -2 0 -59 -44 -126 -97 -496
-398 -924 -867 -1270 -1390 -153 -233 -254 -409 -386 -678 -614 -1246 -782
-2644 -479 -4005 182 -822 560 -1643 1067 -2319 328 -437 804 -913 1226 -1225
515 -382 1081 -681 1667 -881 606 -206 1142 -304 1824 -331 149 -5 557 9 634
23 l33 6 -1575 1576 c-1420 1420 -1577 1580 -1587 1619 -10 41 -3 98 17 128 5
7 1269 1276 2811 2822 2014 2019 2816 2817 2846 2832 50 24 93 25 144 5 26
-11 453 -432 1475 -1453 l1437 -1437 0 118 c0 231 -36 602 -86 887 -231 1321
-884 2522 -1864 3428 -970 897 -2203 1454 -3515 1587 -280 28 -643 41 -739 26z"/>
<path d="M6780 8405 l-2755 -2755 2760 -2760 2760 -2760 2757 2757 2758 2758
-2757 2757 c-1517 1517 -2760 2758 -2763 2758 -3 0 -1245 -1240 -2760 -2755z
m3194 1341 c47 -19 104 -73 129 -120 30 -57 30 -165 0 -221 -13 -24 -698 -716
-1715 -1731 -1845 -1843 -1708 -1714 -1826 -1714 -105 0 -209 86 -231 191 -13
61 -7 108 25 169 35 69 3363 3392 3424 3419 53 24 145 27 194 7z m881 -883
c136 -46 202 -214 135 -343 -10 -19 -781 -796 -1712 -1727 l-1693 -1692 -58
-16 c-117 -33 -230 18 -290 130 -33 61 -30 155 6 221 21 37 477 499 1710 1731
1473 1472 1688 1683 1727 1696 60 20 116 21 175 0z m910 -912 c54 -24 119
-100 135 -156 16 -56 8 -131 -19 -182 -12 -22 -705 -723 -1703 -1720 -1322
-1321 -1693 -1687 -1728 -1702 -54 -25 -136 -27 -187 -6 -137 57 -196 213
-130 340 20 38 416 440 1704 1727 1108 1108 1692 1684 1718 1697 53 27 155 28
210 2z m852 -850 c114 -58 165 -204 112 -321 -15 -35 -381 -406 -1697 -1723
-922 -923 -1691 -1686 -1707 -1697 -81 -51 -200 -45 -278 13 -55 42 -97 123
-97 190 0 117 -128 -19 1714 1825 930 931 1704 1700 1721 1709 16 9 41 20 55
24 40 13 133 3 177 -20z m897 -889 c112 -61 158 -209 101 -323 -23 -47 -3370
-3395 -3418 -3420 -51 -27 -126 -35 -182 -19 -56 16 -132 81 -156 135 -26 55
-25 152 1 208 14 31 478 500 1712 1734 1590 1589 1696 1693 1743 1707 65 20
136 12 199 -22z m-7488 -354 c198 -72 316 -281 274 -483 -72 -347 -509 -466
-743 -201 -146 165 -137 427 20 584 117 117 295 157 449 100z m917 -895 c176
-83 282 -276 249 -455 -53 -287 -349 -444 -607 -322 -290 137 -330 542 -72
731 81 60 164 84 272 80 76 -2 100 -8 158 -34z m799 -874 c242 -51 396 -294
334 -525 -85 -320 -472 -430 -711 -203 -175 165 -177 441 -5 610 106 104 245
147 382 118z m940 -877 c84 -42 133 -84 178 -154 83 -128 93 -287 27 -422
-132 -265 -477 -323 -686 -115 -227 228 -136 600 174 712 39 14 72 17 147 14
84 -3 106 -8 160 -35z m813 -857 c158 -42 277 -164 315 -324 67 -285 -196
-563 -486 -514 -232 40 -394 261 -356 485 44 256 283 416 527 353z"/>
</g>
</svg>
